<svg height="512" viewBox="0 0 512 512" width="512" xmlns="http://www.w3.org/2000/svg"><g id="filled_outline" data-name="filled outline"><path d="m352 432h112v40h-112z" fill="#cbcbcb"/><g fill="#bfbfbf"><path d="m352 440h112v16h-112z"/><path d="m392 400a8 8 0 0 1 -8-8v-16a8 8 0 0 1 16 0v16a8 8 0 0 1 -8 8z"/><path d="m440 400a8 8 0 0 1 -8-8v-16a8 8 0 0 1 16 0v16a8 8 0 0 1 -8 8z"/></g><path d="m280 208a8 8 0 0 1 -8-8v-16a8 8 0 0 1 16 0v16a8 8 0 0 1 -8 8z" fill="#cbcbcb"/><path d="m312 264h-64v-32a32 32 0 0 1 32-32 32 32 0 0 1 32 32z" fill="#ebebeb"/><circle cx="144" cy="112" fill="#aae5c8" r="40"/><path d="m216 248h-144v-64a32 32 0 0 1 32-32h80a32 32 0 0 1 32 32z" fill="#aae5c8"/><path d="m104 256a8 8 0 0 1 -8-8v-56a8 8 0 0 1 16 0v56a8 8 0 0 1 -8 8z" fill="#9fd6bb"/><path d="m184 256a8 8 0 0 1 -8-8v-56a8 8 0 0 1 16 0v56a8 8 0 0 1 -8 8z" fill="#9fd6bb"/><path d="m320 472h-288v-144-40h288v40z" fill="#da922a"/><path d="m320 318.933h-288v-18.508-4.113h288v4.113z" fill="#d18d28"/><path d="m24 248h304v48h-304z" fill="#ea9d2d"/><circle cx="176" cy="384" fill="#d9d9d9" r="56"/><path d="m192 408a7.971 7.971 0 0 1 -5.656-2.344l-16-16a8 8 0 0 1 -2.344-5.656v-24a8 8 0 0 1 16 0v20.687l13.656 13.657a8 8 0 0 1 -5.656 13.656z" fill="#b9b9b9"/><path d="m248 232h64v16h-64z" fill="#cbcbcb"/><path d="m320 400h168v40h-168z" fill="#ebebeb"/><rect fill="#dc4d41" height="128" rx="16" width="112" x="360" y="248"/><path d="m376 208h16v40h-16z" fill="#bfbfbf"/><path d="m440 208h16v40h-16z" fill="#bfbfbf"/><path d="m392 272h16v80h-16z" fill="#b94137"/><path d="m424 272h16v80h-16z" fill="#b94137"/><path d="m416 40a40.346 40.346 0 0 0 -4.09.207c-26.081 2.648-39.94 32.54-27.208 55.456l31.298 56.337 31.3-56.337c12.732-22.916-1.127-52.808-27.208-55.456a40.346 40.346 0 0 0 -4.092-.207z" fill="#6cbae5"/><circle cx="416" cy="80" fill="#4799cf" r="16"/><rect fill="#b94137" height="32" rx="16" width="96" x="368" y="184"/><path d="m400 392v-8h32v8a8 8 0 0 0 16 0v-8h8a24.027 24.027 0 0 0 24-24v-96a24.027 24.027 0 0 0 -24-24v-17.474a23.941 23.941 0 0 0 -8-46.526h-64a23.94 23.94 0 0 0 -8 46.525v17.475a24.027 24.027 0 0 0 -24 24v96a24.027 24.027 0 0 0 24 24h8v8a8 8 0 0 0 16 0zm-16-200h64a8 8 0 0 1 0 16h-64a8 8 0 0 1 0-16zm56 32v16h-48v-16zm-64 144a8.008 8.008 0 0 1 -8-8v-96a8.008 8.008 0 0 1 8-8h80a8.008 8.008 0 0 1 8 8v96a8.008 8.008 0 0 1 -8 8z"/><path d="m24 304v168a8 8 0 0 0 8 8h288a8 8 0 0 0 8-8v-24h16v24a8 8 0 0 0 8 8h112a8 8 0 0 0 8-8v-24h16a8 8 0 0 0 8-8v-32a8 8 0 0 0 -8-8h-160v-96a8 8 0 0 0 8-8v-48a8 8 0 0 0 -8-8h-8v-8a40.067 40.067 0 0 0 -32-39.191v-8.809a8 8 0 0 0 -16 0v8.809a40.067 40.067 0 0 0 -32 39.191v8h-16v-56a40.047 40.047 0 0 0 -40-40h-4.324a48 48 0 1 0 -71.352 0h-4.324a40.047 40.047 0 0 0 -40 40v56h-40a8 8 0 0 0 -8 8v48a8 8 0 0 0 8 8zm432 160h-96v-16h96zm-128-48h152v16h-152zm-16 48h-272v-160h272zm-56-232a24 24 0 0 1 48 0v8h-48zm-112-152a32 32 0 1 1 -32 32 32.034 32.034 0 0 1 32-32zm-64 104a24.027 24.027 0 0 1 24-24h80a24.027 24.027 0 0 1 24 24v56h-16v-48a8 8 0 0 0 -16 0v48h-64v-48a8 8 0 0 0 -16 0v48h-16zm-48 72h288v32h-288z"/><path d="m392 272h16v80h-16z"/><path d="m424 272h16v80h-16z"/><path d="m176 448a64 64 0 1 0 -64-64 64.073 64.073 0 0 0 64 64zm0-112a48 48 0 1 1 -48 48 48.052 48.052 0 0 1 48-48z"/><path d="m186.344 405.656a8 8 0 0 0 11.312-11.312l-13.656-13.656v-20.688a8 8 0 0 0 -16 0v24a8 8 0 0 0 2.344 5.656z"/><path d="m409.008 155.887a8 8 0 0 0 13.984 0l31.3-56.336a46.312 46.312 0 0 0 .492-44.039 42.646 42.646 0 0 0 -33.884-23.262 49.414 49.414 0 0 0 -9.789 0 42.66 42.66 0 0 0 -33.89 23.266 46.312 46.312 0 0 0 .492 44.039zm-17.6-92.969a26.9 26.9 0 0 1 21.321-14.754 32.441 32.441 0 0 1 3.271-.164 31.572 31.572 0 0 1 3.281.168 26.892 26.892 0 0 1 21.313 14.75 30.321 30.321 0 0 1 -.289 28.859l-24.305 43.75-24.3-43.75a30.321 30.321 0 0 1 -.294-28.859z"/><circle cx="416" cy="80" r="16"/></g></svg>